<mxfile host="Electron" modified="2023-08-05T21:42:37.042Z" agent="Mozilla/5.0 (X11; Linux x86_64) AppleWebKit/537.36 (KHTML, like Gecko) draw.io/21.3.7 Chrome/112.0.5615.204 Electron/24.5.0 Safari/537.36" etag="LTNvO0y_kOX7sIBgTIMq" version="21.3.7" type="device">
  <diagram name="Page-1" id="kQyyAcqSYhhN0EvOhDae">
    <mxGraphModel dx="574" dy="390" grid="1" gridSize="10" guides="1" tooltips="1" connect="1" arrows="1" fold="1" page="1" pageScale="1" pageWidth="1169" pageHeight="827" math="0" shadow="0">
      <root>
        <mxCell id="0" />
        <mxCell id="1" parent="0" />
        <mxCell id="NDhJoD4iJHtzYi5odklp-3" style="edgeStyle=orthogonalEdgeStyle;rounded=0;orthogonalLoop=1;jettySize=auto;html=1;entryX=0;entryY=0.25;entryDx=0;entryDy=0;" edge="1" parent="1" source="NDhJoD4iJHtzYi5odklp-1" target="NDhJoD4iJHtzYi5odklp-2">
          <mxGeometry relative="1" as="geometry" />
        </mxCell>
        <mxCell id="NDhJoD4iJHtzYi5odklp-1" value="&lt;font style=&quot;font-size: 8px;&quot; data-font-src=&quot;https://fonts.googleapis.com/css?family=Calibri&quot; face=&quot;Calibri&quot;&gt;State&lt;/font&gt;" style="text;html=1;align=center;verticalAlign=middle;resizable=0;points=[];autosize=1;strokeColor=none;fillColor=none;" vertex="1" parent="1">
          <mxGeometry x="80" y="130" width="40" height="30" as="geometry" />
        </mxCell>
        <mxCell id="NDhJoD4iJHtzYi5odklp-2" value="" style="rounded=1;whiteSpace=wrap;html=1;" vertex="1" parent="1">
          <mxGeometry x="160" y="120" width="80" height="100" as="geometry" />
        </mxCell>
        <mxCell id="NDhJoD4iJHtzYi5odklp-5" style="edgeStyle=orthogonalEdgeStyle;rounded=0;orthogonalLoop=1;jettySize=auto;html=1;entryX=0;entryY=0.75;entryDx=0;entryDy=0;" edge="1" parent="1" source="NDhJoD4iJHtzYi5odklp-4" target="NDhJoD4iJHtzYi5odklp-2">
          <mxGeometry relative="1" as="geometry" />
        </mxCell>
        <mxCell id="NDhJoD4iJHtzYi5odklp-4" value="&lt;font style=&quot;font-size: 8px;&quot; data-font-src=&quot;https://fonts.googleapis.com/css?family=Calibri&quot; face=&quot;Calibri&quot;&gt;timeup&lt;/font&gt;" style="text;html=1;align=center;verticalAlign=middle;resizable=0;points=[];autosize=1;strokeColor=none;fillColor=none;" vertex="1" parent="1">
          <mxGeometry x="75" y="180" width="50" height="30" as="geometry" />
        </mxCell>
        <mxCell id="NDhJoD4iJHtzYi5odklp-6" value="&lt;font style=&quot;font-size: 8px;&quot; data-font-src=&quot;https://fonts.googleapis.com/css?family=Calibri&quot; face=&quot;Calibri&quot;&gt;CLKE Generator&lt;/font&gt;" style="text;html=1;align=center;verticalAlign=middle;resizable=0;points=[];autosize=1;strokeColor=none;fillColor=none;" vertex="1" parent="1">
          <mxGeometry x="165" y="150" width="70" height="30" as="geometry" />
        </mxCell>
        <mxCell id="NDhJoD4iJHtzYi5odklp-9" style="edgeStyle=orthogonalEdgeStyle;rounded=0;orthogonalLoop=1;jettySize=auto;html=1;entryX=1;entryY=0.5;entryDx=0;entryDy=0;startArrow=classic;startFill=1;endArrow=none;endFill=0;" edge="1" parent="1" source="NDhJoD4iJHtzYi5odklp-7" target="NDhJoD4iJHtzYi5odklp-2">
          <mxGeometry relative="1" as="geometry" />
        </mxCell>
        <mxCell id="NDhJoD4iJHtzYi5odklp-7" value="&lt;font style=&quot;font-size: 8px;&quot; data-font-src=&quot;https://fonts.googleapis.com/css?family=Calibri&quot; face=&quot;Calibri&quot;&gt;CLKE&lt;/font&gt;" style="text;html=1;align=center;verticalAlign=middle;resizable=0;points=[];autosize=1;strokeColor=none;fillColor=none;" vertex="1" parent="1">
          <mxGeometry x="280" y="155" width="40" height="30" as="geometry" />
        </mxCell>
      </root>
    </mxGraphModel>
  </diagram>
</mxfile>
